<mxfile host="app.diagrams.net" modified="2022-11-12T10:16:56.554Z" agent="5.0 (Windows NT 10.0; Win64; x64) AppleWebKit/537.36 (KHTML, like Gecko) Chrome/103.0.0.0 Safari/537.36" etag="PUpfxXNx6wfFZPopZxYN" version="20.5.3" type="github">
  <diagram id="R2lEEEUBdFMjLlhIrx00" name="Page-1">
    <mxGraphModel dx="1673" dy="896" grid="1" gridSize="10" guides="1" tooltips="1" connect="1" arrows="1" fold="1" page="1" pageScale="1" pageWidth="3300" pageHeight="4681" math="0" shadow="0" extFonts="Permanent Marker^https://fonts.googleapis.com/css?family=Permanent+Marker">
      <root>
        <mxCell id="0" />
        <mxCell id="1" parent="0" />
        <mxCell id="QMqkGA5E9AlGB3btgFpS-1" value="&lt;span style=&quot;font-size: 30px;&quot;&gt;供应商&lt;/span&gt;" style="rounded=0;whiteSpace=wrap;html=1;" vertex="1" parent="1">
          <mxGeometry x="1030" y="270" width="200" height="80" as="geometry" />
        </mxCell>
        <mxCell id="QMqkGA5E9AlGB3btgFpS-4" value="&lt;font style=&quot;font-size: 21px;&quot;&gt;销售支付方式&lt;/font&gt;" style="ellipse;whiteSpace=wrap;html=1;" vertex="1" parent="1">
          <mxGeometry x="680" y="100" width="160" height="60" as="geometry" />
        </mxCell>
        <mxCell id="QMqkGA5E9AlGB3btgFpS-5" value="&lt;font style=&quot;font-size: 21px;&quot;&gt;采购支付方式&lt;/font&gt;" style="ellipse;whiteSpace=wrap;html=1;" vertex="1" parent="1">
          <mxGeometry x="1100" y="90" width="160" height="60" as="geometry" />
        </mxCell>
        <mxCell id="QMqkGA5E9AlGB3btgFpS-6" value="&lt;font style=&quot;font-size: 21px;&quot;&gt;销售价格&lt;/font&gt;" style="ellipse;whiteSpace=wrap;html=1;" vertex="1" parent="1">
          <mxGeometry x="680" y="160" width="160" height="60" as="geometry" />
        </mxCell>
        <mxCell id="QMqkGA5E9AlGB3btgFpS-7" value="&lt;font style=&quot;font-size: 21px;&quot;&gt;销售单号&lt;/font&gt;" style="ellipse;whiteSpace=wrap;html=1;" vertex="1" parent="1">
          <mxGeometry x="520" y="100" width="160" height="60" as="geometry" />
        </mxCell>
        <mxCell id="QMqkGA5E9AlGB3btgFpS-8" value="&lt;font style=&quot;font-size: 21px;&quot;&gt;销售日期&lt;/font&gt;" style="ellipse;whiteSpace=wrap;html=1;" vertex="1" parent="1">
          <mxGeometry x="520" y="160" width="160" height="60" as="geometry" />
        </mxCell>
        <mxCell id="QMqkGA5E9AlGB3btgFpS-9" value="&lt;font style=&quot;font-size: 21px;&quot;&gt;供应商号&lt;/font&gt;" style="ellipse;whiteSpace=wrap;html=1;" vertex="1" parent="1">
          <mxGeometry x="1440" y="100" width="160" height="60" as="geometry" />
        </mxCell>
        <mxCell id="QMqkGA5E9AlGB3btgFpS-10" value="&lt;span style=&quot;font-size: 21px;&quot;&gt;供应量&lt;/span&gt;" style="ellipse;whiteSpace=wrap;html=1;" vertex="1" parent="1">
          <mxGeometry x="1640" y="100" width="160" height="60" as="geometry" />
        </mxCell>
        <mxCell id="QMqkGA5E9AlGB3btgFpS-11" value="&lt;font style=&quot;font-size: 21px;&quot;&gt;采购单号&lt;/font&gt;" style="ellipse;whiteSpace=wrap;html=1;" vertex="1" parent="1">
          <mxGeometry x="940" y="90" width="160" height="60" as="geometry" />
        </mxCell>
        <mxCell id="QMqkGA5E9AlGB3btgFpS-12" value="&lt;font style=&quot;font-size: 21px;&quot;&gt;采购价格&lt;/font&gt;" style="ellipse;whiteSpace=wrap;html=1;" vertex="1" parent="1">
          <mxGeometry x="1100" y="150" width="160" height="60" as="geometry" />
        </mxCell>
        <mxCell id="QMqkGA5E9AlGB3btgFpS-13" value="&lt;font style=&quot;font-size: 21px;&quot;&gt;采购日期&lt;/font&gt;" style="ellipse;whiteSpace=wrap;html=1;" vertex="1" parent="1">
          <mxGeometry x="940" y="150" width="160" height="60" as="geometry" />
        </mxCell>
        <mxCell id="QMqkGA5E9AlGB3btgFpS-17" value="供应" style="rhombus;whiteSpace=wrap;html=1;fontSize=21;" vertex="1" parent="1">
          <mxGeometry x="1030" y="400" width="200" height="80" as="geometry" />
        </mxCell>
        <mxCell id="QMqkGA5E9AlGB3btgFpS-18" value="存放" style="rhombus;whiteSpace=wrap;html=1;fontSize=21;" vertex="1" parent="1">
          <mxGeometry x="1280" y="400" width="200" height="80" as="geometry" />
        </mxCell>
        <mxCell id="QMqkGA5E9AlGB3btgFpS-19" value="&lt;span style=&quot;font-size: 30px;&quot;&gt;钢材&lt;/span&gt;" style="rounded=0;whiteSpace=wrap;html=1;" vertex="1" parent="1">
          <mxGeometry x="1030" y="530" width="200" height="80" as="geometry" />
        </mxCell>
        <mxCell id="QMqkGA5E9AlGB3btgFpS-20" value="&lt;font style=&quot;font-size: 30px;&quot;&gt;da&lt;/font&gt;" style="rounded=0;whiteSpace=wrap;html=1;" vertex="1" parent="1">
          <mxGeometry x="1520" y="270" width="200" height="80" as="geometry" />
        </mxCell>
      </root>
    </mxGraphModel>
  </diagram>
</mxfile>
